<svg width="48" height="49" viewBox="0 0 48 49" fill="none" xmlns="http://www.w3.org/2000/svg">
<g clip-path="url(#clip0_401_9413)">
<path d="M41.6313 22.8511C41.1439 17.7899 39.0312 13.1393 35.6821 9.75622C32.3579 6.39818 28.0849 4.54883 23.6501 4.54883C23.0074 4.54883 22.3559 4.58815 21.7127 4.66571C21.179 4.66985 17.4929 4.81313 15.061 7.88754C13.3846 10.0068 12.7106 12.976 13.057 16.7142C13.0345 17.1983 13.037 18.9813 14.1544 20.3889C15.0679 21.5396 16.4465 22.123 18.2521 22.123C18.6286 22.123 19.0295 22.097 19.4429 22.046C19.5562 22.032 19.671 22.025 19.7841 22.025C21.3717 22.025 22.6998 23.3771 22.8734 25.1691C22.9631 26.1031 22.7259 27.0219 22.2052 27.756C21.6845 28.4902 20.9433 28.9506 20.1179 29.0523C18.4565 29.2579 17.1894 30.0264 16.3519 31.3364C14.8561 33.6763 15.3332 36.9171 15.4132 37.3892C15.7216 40.5199 16.7711 42.8255 18.533 44.2427C19.7849 45.2496 21.4082 45.7817 23.2276 45.7817C24.4417 45.7817 25.388 45.5464 25.651 45.4737C35.5482 44.211 42.7124 34.0773 41.6313 22.8511ZM25.402 43.5221C25.3573 43.5276 25.3132 43.5371 25.2698 43.5504C25.2612 43.5529 24.3859 43.8108 23.2278 43.8108C19.6128 43.8108 17.5639 41.5639 17.138 37.1324C17.1351 37.1015 17.1303 37.0683 17.1248 37.0378C17.1198 37.0101 16.6339 34.2461 17.7647 32.4861C18.3096 31.6382 19.1411 31.1559 20.3064 31.0117C21.5933 30.8532 22.7491 30.1355 23.5611 28.9908C24.3727 27.8462 24.7426 26.4132 24.6025 24.9547C24.3318 22.1609 22.2604 20.054 19.7842 20.054C19.6088 20.054 19.4309 20.065 19.2549 20.0866C18.9034 20.1301 18.566 20.1522 18.2521 20.1522C16.9691 20.1523 16.0292 19.793 15.4585 19.0846C14.6965 18.1387 14.7945 16.6583 14.7943 16.5878C14.783 13.4021 15.0105 10.9043 16.3561 9.20336C18.3633 6.66594 21.6024 6.63677 21.7457 6.63677C21.7816 6.63756 21.8178 6.63549 21.8537 6.63105C22.45 6.55734 23.0545 6.51999 23.6503 6.51999C32.0074 6.51999 38.9944 13.6328 39.9024 23.0652C40.8817 33.2336 34.3768 42.4107 25.402 43.5221Z" fill="#DB6400"/>
<path d="M25.8987 17.2537C26.4943 16.4138 26.7654 15.362 26.6621 14.2933C26.4658 12.2396 24.9454 10.6909 23.1255 10.6909C22.9971 10.6909 22.867 10.6989 22.7378 10.7148C20.7861 10.9577 19.37 12.9538 19.5815 15.1653C19.7793 17.2159 21.2985 18.7622 23.1152 18.7622C23.2452 18.7622 23.3772 18.754 23.5057 18.738C24.4525 18.622 25.3022 18.0948 25.8987 17.2537ZM24.543 16.0191C24.2379 16.4495 23.803 16.7192 23.3171 16.7788C23.25 16.7872 23.182 16.7913 23.1152 16.7913C22.1875 16.7913 21.4116 16.0002 21.3104 14.9521C21.2023 13.8205 21.9278 12.7986 22.9265 12.6742C22.9927 12.666 23.0596 12.662 23.1255 12.662C24.0555 12.662 24.8326 13.4545 24.9332 14.5067C24.986 15.0528 24.8473 15.5899 24.543 16.0191Z" fill="#DB6400"/>
<path d="M30.9885 22.8769C31.1157 22.8769 31.2446 22.8691 31.3744 22.8533C33.3269 22.6099 34.7421 20.6135 34.5292 18.4039C34.333 16.3514 32.8125 14.8037 30.9922 14.8037C30.8621 14.8037 30.7302 14.8119 30.6016 14.828C29.6547 14.9442 28.8047 15.4723 28.2082 16.3148C27.6126 17.1558 27.3423 18.208 27.4468 19.2771C27.6468 21.3294 29.1695 22.8769 30.9885 22.8769ZM29.5646 17.5484C29.8699 17.1171 30.3047 16.8469 30.7903 16.7873C30.8574 16.7789 30.9254 16.7747 30.9922 16.7747C31.9226 16.7747 32.6999 17.5663 32.8002 18.6169C32.9092 19.748 32.1842 20.7695 31.1868 20.8939C31.1208 20.9019 31.0541 20.9059 30.9885 20.9059C30.0574 20.9059 29.2779 20.1126 29.1753 19.0604C29.122 18.5151 29.2602 17.978 29.5646 17.5484Z" fill="#DB6400"/>
<path d="M25.0568 30.7715C24.9285 30.7715 24.7987 30.7795 24.6691 30.7953C22.7169 31.0388 21.3017 33.0353 21.5143 35.2445C21.7091 37.2975 23.2299 38.8454 25.0518 38.8454C25.1803 38.8454 25.3104 38.8374 25.4401 38.8215C27.3927 38.5784 28.8079 36.5795 28.5948 34.3645C28.3949 32.3161 26.8739 30.7715 25.0568 30.7715ZM25.2513 36.8622C25.1849 36.8703 25.1178 36.8745 25.0517 36.8745C24.1204 36.8745 23.343 36.0831 23.2433 35.0322C23.1344 33.901 23.8594 32.8791 24.8577 32.7547C24.9238 32.7466 24.9908 32.7425 25.0567 32.7425C25.9859 32.7425 26.7638 33.5329 26.8659 34.5797C26.9751 35.7138 26.2503 36.7378 25.2513 36.8622Z" fill="#DB6400"/>
<path d="M31.955 24.8384C31.8264 24.8384 31.6961 24.8464 31.5654 24.8624C29.6152 25.108 28.2004 27.1048 28.4115 29.314C28.6085 31.3664 30.128 32.9141 31.9461 32.9141C32.0762 32.9141 32.2081 32.9059 32.3375 32.8898C34.2892 32.6475 35.7053 30.6506 35.494 28.4369C35.2957 26.3854 33.7743 24.8384 31.955 24.8384ZM32.1478 30.9306C32.0808 30.9389 32.0129 30.9432 31.9462 30.9432C31.0175 30.9432 30.2413 30.1512 30.1405 29.1014C30.0324 27.97 30.7578 26.9472 31.7552 26.8217C31.8216 26.8135 31.8888 26.8093 31.955 26.8093C32.8855 26.8093 33.6637 27.6013 33.765 28.6502C33.8733 29.7834 33.148 30.8065 32.1478 30.9306Z" fill="#DB6400"/>
<path d="M5.19548 0.5C3.70321 0.5 2.43302 2.5568 1.31249 6.78777C0.495436 9.87263 0.00351826 13.2165 3.99626e-05 14.6658C-0.0065688 16.602 0.807005 18.786 2.07267 20.2298C2.11641 20.2796 2.16076 20.3273 2.20511 20.375C2.13911 20.5139 2.10163 20.6726 2.10163 20.8413V30.4774C2.10163 30.4852 2.1025 30.4927 2.10267 30.5004C2.10284 30.5081 2.10224 30.5157 2.10258 30.5235L2.72111 45.4737C2.74294 46.0002 3.12607 46.413 3.58947 46.413C3.59425 46.413 3.59903 46.413 3.60382 46.4129L6.6468 46.3569C7.10324 46.3485 7.4762 45.9416 7.50099 45.425L8.21447 30.548C8.21491 30.5393 8.2143 30.5306 8.21456 30.5219C8.21473 30.5128 8.21578 30.5037 8.21578 30.4944V20.8412C8.21578 20.6696 8.17691 20.5083 8.10882 20.3677C8.38178 20.0738 8.64195 19.7393 8.88526 19.3634C9.77814 17.9844 10.3142 16.243 10.3194 14.7048C10.324 13.252 9.85031 9.9017 9.04978 6.80975C7.95229 2.57001 6.69324 0.506011 5.19548 0.5ZM5.80853 44.401L4.41895 44.4266L4.04208 35.3192L6.24341 35.3329L5.80853 44.401ZM6.33784 33.3625L3.96051 33.3477L3.8826 31.4664L5.31053 31.4719L6.42828 31.4763L6.33784 33.3625ZM6.47671 29.5055L3.84077 29.4953V21.8267H4.9467C5.01053 21.8307 5.07453 21.8331 5.13861 21.8333H5.15201C5.20783 21.8333 5.26331 21.8296 5.31896 21.8267H6.47671V29.5055ZM5.28175 19.8558H5.00166C4.28469 19.7921 3.68895 19.2769 3.30651 18.8405C2.37893 17.7826 1.73449 16.0689 1.73919 14.6723C1.74188 13.5554 2.17389 10.3909 2.97807 7.35433C4.05199 3.29976 5.00026 2.47097 5.19461 2.47097C5.38905 2.47165 6.32993 3.30458 7.38107 7.36467C8.10343 10.1549 8.5843 13.4091 8.5803 14.6976C8.57274 16.8971 6.98976 19.7179 5.28175 19.8558Z" fill="#DB6400"/>
</g>
<defs>
<clipPath id="clip0_401_9413">
<rect width="48" height="48" fill="white" transform="translate(0 0.5)"/>
</clipPath>
</defs>
</svg>
