<svg width="48" height="49" viewBox="0 0 48 49" fill="none" xmlns="http://www.w3.org/2000/svg">
<path d="M14.6786 16.3629C14.8346 16.5356 15.0394 16.6224 15.2442 16.6224C15.449 16.6224 15.6538 16.5356 15.8098 16.3629C16.1226 16.0166 16.1226 15.4569 15.8098 15.1106C14.9978 14.2109 14.9978 12.7478 15.8098 11.8481C16.5058 11.0776 16.8898 10.0538 16.8898 8.96453C16.8898 7.87523 16.5066 6.85147 15.8098 6.08099C15.497 5.73472 14.9914 5.73472 14.6786 6.08099C14.3658 6.42727 14.3658 6.98697 14.6786 7.33324C15.0722 7.76896 15.2898 8.34815 15.2898 8.96453C15.2898 9.58091 15.073 10.1601 14.6786 10.5958C13.2426 12.1855 13.2426 14.7732 14.6786 16.3629Z" fill="#DB6400"/>
<path d="M32.2801 16.3629C32.4361 16.5356 32.6409 16.6224 32.8457 16.6224C33.0505 16.6224 33.2553 16.5356 33.4113 16.3629C33.7241 16.0166 33.7241 15.4569 33.4113 15.1106C32.5993 14.2109 32.5993 12.7478 33.4113 11.8481C34.1073 11.0776 34.4913 10.0538 34.4913 8.96453C34.4913 7.87523 34.1081 6.85147 33.4113 6.08099C33.0985 5.73472 32.5929 5.73472 32.2801 6.08099C31.9673 6.42727 31.9673 6.98697 32.2801 7.33324C32.6737 7.76896 32.8913 8.34815 32.8913 8.96453C32.8913 9.58091 32.6745 10.1601 32.2801 10.5958C30.8441 12.1855 30.8441 14.7732 32.2801 16.3629Z" fill="#DB6400"/>
<path d="M23.4793 11.0416C23.6353 11.2143 23.8401 11.3011 24.0449 11.3011C24.2497 11.3011 24.4545 11.2143 24.6105 11.0416C24.9233 10.6953 24.9233 10.1356 24.6105 9.78935C23.7985 8.88957 23.7985 7.42655 24.6105 6.52677C25.3065 5.75629 25.6905 4.73253 25.6905 3.64324C25.6905 2.55394 25.3073 1.53018 24.6105 0.759704C24.2977 0.413432 23.7921 0.413432 23.4793 0.759704C23.1665 1.10598 23.1665 1.66568 23.4793 2.01195C23.8729 2.44767 24.0905 3.02686 24.0905 3.64324C24.0905 4.25962 23.8737 4.83881 23.4793 5.27453C22.0433 6.86419 22.0433 9.45193 23.4793 11.0416Z" fill="#DB6400"/>
<path d="M20.2772 23.2637C20.3356 23.2637 20.3948 23.2566 20.454 23.2425C21.6044 22.9555 22.794 22.8103 23.9908 22.8103C23.994 22.8103 23.9972 22.8103 24.0012 22.8103C24.4428 22.8103 24.8012 22.4144 24.8012 21.9256C24.8012 21.4358 24.4436 21.0391 24.0012 21.0391C23.998 21.0391 23.994 21.0391 23.99 21.0391C22.6756 21.0391 21.3676 21.1994 20.102 21.5146C19.6708 21.6218 19.4004 22.0956 19.4972 22.5729C19.582 22.9847 19.9116 23.2637 20.2772 23.2637Z" fill="#DB6400"/>
<path d="M7.85576 37.8552C7.90456 37.8658 7.95256 37.8702 7.99976 37.8702C8.37896 37.8702 8.71576 37.5709 8.78616 37.144C9.61736 32.0978 12.3646 27.6078 16.135 25.1352C16.515 24.8863 16.6406 24.3426 16.4158 23.9219C16.1902 23.5012 15.6998 23.3622 15.3198 23.6111C11.1566 26.3414 8.12616 31.2813 7.21256 36.8252C7.13256 37.307 7.42056 37.7675 7.85576 37.8552Z" fill="#DB6400"/>
<path d="M44.4992 36.6533C43.0496 27.2296 36.4136 19.7418 27.9656 17.9281C27.9792 17.7864 28 17.6438 28 17.503C28 15.0614 26.2056 13.075 24 13.075C21.7944 13.075 20 15.0614 20 17.503C20 17.6438 20.02 17.7864 20.0344 17.9281C11.5864 19.7418 4.9504 27.2296 3.5008 36.6533C1.8288 37.701 0 39.2428 0 40.9724C0 45.4757 12.4096 48.5001 24 48.5001C35.5904 48.5001 48 45.4757 48 40.9724C48 39.2428 46.1712 37.701 44.4992 36.6533ZM21.6048 17.6562C21.6016 17.6048 21.6 17.5535 21.6 17.5039C21.6 16.0391 22.6768 14.847 24 14.847C25.3232 14.847 26.4 16.0391 26.4 17.5039C26.4 17.5543 26.3984 17.6048 26.3952 17.6562C26.3576 17.6518 26.32 17.65 26.2832 17.6456C26.008 17.6119 25.7312 17.588 25.4528 17.5667C25.3504 17.5588 25.2488 17.5473 25.1464 17.5411C24.7672 17.518 24.3856 17.5048 24.0008 17.5048C23.616 17.5048 23.2344 17.518 22.8552 17.5411C22.7528 17.5473 22.6512 17.5588 22.5488 17.5667C22.2704 17.588 21.9936 17.6128 21.7184 17.6456C21.68 17.65 21.6424 17.6509 21.6048 17.6562ZM21.1192 19.5142C21.5488 19.4433 21.9808 19.392 22.4144 19.353C22.5032 19.345 22.592 19.338 22.6808 19.3309C23.5592 19.2653 24.4416 19.2653 25.32 19.3309C25.4088 19.338 25.4976 19.345 25.5864 19.353C26.02 19.392 26.452 19.4433 26.8816 19.5142C35.216 20.909 41.8072 28.2569 43.0032 37.5062C43.04 37.7904 43.0696 38.0756 43.096 38.3608C43.1048 38.4591 43.1168 38.5565 43.1248 38.6548C43.156 39.0471 43.1792 39.4394 43.1904 39.8318C30.6224 43.0563 17.3792 43.0563 4.8112 39.8318C4.8232 39.4394 4.8456 39.0471 4.8768 38.6548C4.8848 38.5565 4.896 38.4591 4.9056 38.3608C4.932 38.0747 4.9616 37.7896 4.9984 37.5062C6.1936 28.2569 12.7848 20.9081 21.1192 19.5142ZM24 46.7289C10.3232 46.7289 1.6 42.9482 1.6 40.9724C1.6 40.6332 1.9792 39.8858 3.2512 38.9107C3.248 38.9612 3.2496 39.0108 3.2464 39.0613C3.2192 39.5466 3.2 40.0355 3.2 40.5296V41.2275L3.8136 41.3913C10.4168 43.1448 17.2088 44.0233 24 44.0233C30.7912 44.0233 37.5832 43.1457 44.1864 41.3913L44.8 41.2275V40.5296C44.8 40.0355 44.7808 39.5475 44.7536 39.0613C44.7504 39.0108 44.752 38.9612 44.7488 38.9107C46.0208 39.8858 46.4 40.6332 46.4 40.9724C46.4 42.9482 37.6768 46.7289 24 46.7289Z" fill="#DB6400"/>
</svg>
