<svg width="48" height="49" viewBox="0 0 48 49" fill="none" xmlns="http://www.w3.org/2000/svg">
<path d="M23.3894 0.52095C21.9982 0.711383 20.6717 1.89207 19.5268 3.96779C18.3515 6.09303 17.4053 9.00665 16.7788 12.423C16.5714 13.5618 16.6103 13.4437 16.4677 13.379C16.4029 13.3523 15.932 13.1886 15.4221 13.021C12.1989 11.9546 9.46391 11.3109 6.86719 11.0062C6.01602 10.9072 3.8816 10.9072 3.23782 11.01C2.62429 11.1052 2.041 11.269 1.57437 11.4823C0.809607 11.8327 0.226316 12.484 0.0621306 13.1848C-0.248958 14.5026 0.610856 16.3231 2.58108 18.5131C4.0069 20.0937 6.54746 22.2913 8.88926 23.9633C9.17875 24.1689 9.41638 24.348 9.41638 24.3632C9.41638 24.3784 9.2954 24.4736 9.1485 24.5765C8.63866 24.9269 7.5801 25.7115 6.9752 26.1875C3.94641 28.568 1.86817 30.7389 0.800965 32.628C0.243599 33.6182 0.0405272 34.2657 0.0405272 35.0427C0.0405272 35.8349 0.247919 36.2691 0.917623 36.8823C1.39722 37.3203 1.69966 37.5221 2.17494 37.7126C3.38905 38.2077 5.43705 38.2953 7.86094 37.9563C10.099 37.6478 12.8168 36.9737 15.6943 36.0215C16.2171 35.8463 16.6492 35.713 16.6578 35.7244C16.6665 35.7321 16.7529 36.132 16.8479 36.6119C17.7207 41.1023 19.0601 44.5263 20.6847 46.4382C21.0649 46.8876 21.8383 47.5846 22.2704 47.8741C24.1974 49.1576 26.1719 48.4568 27.8873 45.8669C28.557 44.8576 29.2569 43.3456 29.7883 41.7497C30.3371 40.1044 30.8815 37.8497 31.1753 35.9987C31.2142 35.7473 31.2531 35.5378 31.2574 35.5302C31.2617 35.5264 31.6333 35.6483 32.0826 35.8044C35.4441 36.9699 38.6932 37.7621 41.3245 38.063C42.0893 38.1467 44.2064 38.162 44.7163 38.082C46.4964 37.804 47.4772 37.1603 47.8142 36.052C47.9136 35.7206 47.9092 35.0351 47.8099 34.6085C47.5895 33.683 47.0019 32.5861 46.1075 31.4283C44.7681 29.6915 42.4393 27.5168 39.7259 25.4715C39.3197 25.1668 38.9093 24.8583 38.8056 24.7898C38.7062 24.7174 38.6241 24.6488 38.6241 24.6374C38.6241 24.6222 38.7192 24.5498 38.8272 24.4774C39.1944 24.2375 40.5598 23.2282 41.1647 22.7521C43.083 21.2477 44.6299 19.8118 45.7532 18.4978C47.7667 16.1403 48.445 14.2131 47.7148 12.9067C47.6025 12.7049 47.4512 12.5297 47.1661 12.2669C46.384 11.5432 45.6841 11.2309 44.3879 11.0291C43.8997 10.9491 43.6923 10.9415 42.6855 10.9415C41.4498 10.9415 40.9098 10.9834 39.5444 11.1852C37.3625 11.5089 34.5411 12.2136 31.9271 13.0857C31.5598 13.2076 31.2531 13.3066 31.2487 13.3028C31.2444 13.299 31.1882 13.0248 31.1278 12.6896C30.2982 8.27158 28.9285 4.69906 27.278 2.65C26.9021 2.18153 25.7226 1.14938 25.3035 0.920861C24.6943 0.593316 23.9684 0.440968 23.3894 0.52095ZM24.8585 1.97205C25.3424 2.13202 25.7399 2.37577 26.0423 2.70712C27.4897 4.28772 28.7557 7.52127 29.5464 11.6613C29.6976 12.4573 29.8964 13.6113 29.8964 13.7104C29.8964 13.7561 29.8316 13.8056 29.7149 13.8513C29.6112 13.8894 29.0063 14.1217 28.3625 14.3654C26.6904 15.0053 25.9905 15.2871 24.8369 15.7823L23.8172 16.2203L23.0438 15.8775C21.9895 15.4128 21.0908 15.0434 19.4835 14.4188C18.7361 14.1255 18.1225 13.8817 18.1139 13.8779C18.088 13.8513 18.4682 11.8251 18.6626 10.9567C19.328 8.02021 20.1878 5.65884 21.16 4.12014C21.5575 3.48409 21.8988 3.07276 22.3784 2.65C22.7586 2.31102 22.8882 2.22342 23.1993 2.08631C23.4024 1.99871 23.653 1.91111 23.761 1.89207C24.0505 1.83875 24.5776 1.87684 24.8585 1.97205ZM44.3922 12.1526C45.1051 12.2593 45.831 12.5144 46.1032 12.7544C46.168 12.8153 46.2717 12.9524 46.3279 13.0629C46.9544 14.2321 46.1118 16.0603 43.8781 18.3722C42.9059 19.3738 40.8925 21.0839 39.2506 22.2913C38.6414 22.7407 37.2458 23.7157 37.2113 23.7157C37.1983 23.7157 37.0211 23.5976 36.8138 23.4529C35.7725 22.7255 33.9621 21.5829 32.748 20.8897L32.061 20.4974L32.0567 20.307C32.0481 19.1796 31.7845 16.544 31.5382 15.1462C31.495 14.8872 31.4648 14.6663 31.4691 14.6587C31.5123 14.6244 34.1349 13.7751 34.8911 13.5542C37.5569 12.7696 39.8123 12.2973 41.7566 12.1183C42.4998 12.0536 43.8392 12.0688 44.3922 12.1526ZM6.39191 12.1755C8.55225 12.3202 11.3564 12.9067 14.4716 13.8627C15.4869 14.1788 16.4115 14.4797 16.4504 14.5178C16.4634 14.5292 16.4332 14.773 16.3813 15.0624C16.1912 16.1136 16.0443 17.4428 15.919 19.29C15.8844 19.8233 15.8542 20.2727 15.8542 20.2917C15.8542 20.307 15.4696 20.5507 15.003 20.8249C13.9833 21.4229 13.4044 21.7847 11.6891 22.8854C10.9805 23.3425 10.3799 23.7119 10.3626 23.7081C10.3453 23.7005 9.93486 23.4186 9.45095 23.0835C5.71789 20.4707 3.28967 18.1589 2.17494 16.1555C1.77312 15.4319 1.63485 15.032 1.60893 14.4835C1.57869 13.996 1.63485 13.737 1.82928 13.4133C2.39961 12.4497 3.99826 12.0155 6.39191 12.1755ZM18.2867 15.1995C19.1638 15.4928 21.9766 16.6392 22.2877 16.8297C22.3784 16.8868 22.3438 16.9058 21.6352 17.2143C21.2248 17.3933 20.4816 17.7552 19.9804 18.0218C18.1053 19.0234 17.4874 19.3434 17.4701 19.3243C17.4183 19.2824 17.6948 16.6011 17.8417 15.6604C17.8892 15.3671 17.9281 15.1234 17.9281 15.1196C17.9281 15.0929 18.0232 15.1158 18.2867 15.1995ZM30.1426 15.5499C30.2895 16.3878 30.4364 17.8161 30.484 18.9282L30.5142 19.6062L29.9136 19.2482C29.123 18.7759 27.3558 17.858 26.2886 17.3667L25.6491 17.0734L26.833 16.5554C28.2977 15.9194 29.9914 15.2262 30.0476 15.2376C30.0692 15.2414 30.1124 15.3824 30.1426 15.5499ZM24.9449 18.1132C25.3294 18.2998 26.0596 18.6502 26.5694 18.8978C27.9564 19.5643 30.5833 20.9773 30.6093 21.0687C30.6568 21.2477 30.7173 22.676 30.7173 23.7348C30.7173 24.3632 30.687 25.5286 30.6482 26.3247C30.579 27.7034 30.5704 27.7758 30.484 27.8405C30.2895 27.989 29.2655 28.568 28.2761 29.0936C27.291 29.6153 26.1676 30.1676 24.5042 30.9484L23.7567 31.2988L23.3376 31.1045C21.2939 30.1447 19.1293 29.0555 17.8849 28.3509C17.4442 28.1033 17.388 28.0576 17.3621 27.9433C17.1763 27.1321 17.1417 22.8473 17.3059 21.4381L17.3362 21.2134L18.3775 20.6383C19.5397 19.9985 19.5008 20.0213 20.9094 19.3053C21.834 18.8368 24.1153 17.778 24.2104 17.7742C24.232 17.7742 24.5603 17.9265 24.9449 18.1132ZM33.085 22.3332C34.1825 22.9883 36.2391 24.3099 36.2477 24.3632C36.2477 24.3899 35.5305 24.885 34.9256 25.2697C34.5411 25.5134 32.4283 26.8122 32.2857 26.8883C32.2684 26.8998 32.2554 26.0733 32.2641 25.0564C32.2727 24.0356 32.2598 22.8969 32.2425 22.5236C32.2252 22.1542 32.2252 21.8495 32.2425 21.8495C32.2641 21.8495 32.6443 22.0666 33.085 22.3332ZM15.6511 23.6662C15.6381 24.5422 15.6511 25.6696 15.6727 26.1723C15.6943 26.675 15.7073 27.094 15.6986 27.1016C15.6814 27.1207 13.6809 25.9247 12.8729 25.4106C12.5057 25.1782 12.0822 24.9116 11.9353 24.8164C11.7884 24.725 11.6675 24.6412 11.6675 24.6298C11.6718 24.5727 15.5777 22.078 15.6641 22.078C15.6684 22.078 15.6641 22.794 15.6511 23.6662ZM11.2095 25.5782C12.2075 26.2904 13.8062 27.2768 15.1974 28.0347C15.5345 28.2214 15.8196 28.3851 15.8326 28.4004C15.8412 28.4156 15.8715 28.8003 15.8974 29.2611C15.9795 30.8379 16.1739 32.6813 16.3727 33.8163C16.4202 34.0829 16.4591 34.3076 16.4591 34.3152C16.4591 34.3609 14.4845 35.0122 13.1322 35.4159C9.75772 36.4176 7.13075 36.8937 5.00066 36.8937C3.81679 36.8937 3.03907 36.7642 2.37369 36.4595C2.05396 36.3148 1.86817 36.1282 1.72127 35.8006C1.63053 35.6064 1.61757 35.5188 1.62189 35.0274C1.62189 34.5057 1.63053 34.4523 1.76447 34.0943C2.18358 32.9784 3.09092 31.733 4.5297 30.3047C5.48025 29.3602 7.34246 27.7834 8.78989 26.6979C9.82685 25.9247 10.7644 25.2773 10.812 25.3039C10.8379 25.3192 11.015 25.441 11.2095 25.5782ZM38.4124 25.8295C40.927 27.5929 42.6942 29.0517 44.0466 30.4761C46.2199 32.7689 46.976 34.5628 46.2847 35.7816C46.1464 36.0215 45.6971 36.41 45.386 36.5585C44.6515 36.9051 43.4589 37.0575 42.1023 36.9737C40.0024 36.8442 37.4619 36.311 34.4331 35.3626C33.4436 35.0541 31.495 34.3876 31.495 34.3609C31.495 34.3495 31.5339 34.1324 31.5814 33.8772C31.7759 32.807 31.9444 31.1959 32.0221 29.7106L32.074 28.7165L32.2684 28.606C33.6424 27.8595 35.9107 26.4503 37.2804 25.4982C37.4791 25.3611 37.6174 25.2887 37.652 25.3077C37.6822 25.323 38.0279 25.5553 38.4124 25.8295ZM18.1701 29.8172C18.4768 29.9962 19.0472 30.3085 19.4403 30.5028C19.8335 30.7008 20.4557 31.0169 20.823 31.2074C21.1902 31.3978 21.6828 31.6377 21.9161 31.7368C22.1451 31.8396 22.3352 31.9348 22.3352 31.95C22.3352 32.03 18.2738 33.7135 17.9281 33.7782C17.8849 33.7858 17.8547 33.7135 17.8114 33.4849C17.6645 32.6623 17.5306 31.2721 17.4744 29.9848C17.4485 29.3906 17.4485 29.3792 17.5306 29.4325C17.5781 29.463 17.8633 29.6344 18.1701 29.8172ZM30.4537 30.1904C30.376 31.2416 30.1772 32.8717 30.0217 33.6792L29.9741 33.9153L29.5593 33.7706C28.557 33.424 26.1374 32.4376 25.6707 32.1824L25.5282 32.1062L26.3188 31.7596C27.4465 31.2683 29.5205 30.2285 30.2852 29.7753C30.3889 29.7106 30.4797 29.6648 30.484 29.6687C30.4883 29.6725 30.471 29.9086 30.4537 30.1904ZM24.7159 32.9327C25.8781 33.5116 27.6237 34.2581 29.097 34.7989C29.4557 34.9322 29.7624 35.0503 29.7797 35.0655C29.8186 35.096 29.7581 35.4997 29.5248 36.7794C28.6261 41.6964 27.1225 45.2423 25.3856 46.5334C24.5301 47.1695 23.6616 47.2952 22.7759 46.9067C22.3006 46.701 21.9809 46.4192 21.5143 45.8022C20.3952 44.313 19.3971 41.8069 18.6669 38.6457C18.3472 37.2517 17.9843 35.2636 18.0448 35.2179C18.062 35.2026 18.3515 35.0922 18.6842 34.9703C20.5853 34.2733 22.5815 33.4469 23.6314 32.9174C23.9036 32.7803 24.1412 32.6699 24.1542 32.6661C24.1672 32.6661 24.4221 32.788 24.7159 32.9327Z" fill="#DB6400"/>
<path d="M23.0787 22.0386C22.1368 22.2557 21.4066 22.8803 21.1214 23.7144C21.0047 24.0534 20.9831 24.6742 21.0782 25.0094C21.3547 25.973 22.0201 26.6395 23.0225 26.9404C23.3077 27.028 23.4243 27.0432 23.891 27.0432C24.3705 27.0432 24.4699 27.0318 24.7767 26.9366C25.9735 26.5709 26.7037 25.6759 26.7037 24.5714C26.7037 23.8439 26.4185 23.2764 25.7704 22.7051C25.4853 22.4538 25.3038 22.3281 25.0921 22.2367C24.457 21.9663 23.7181 21.8939 23.0787 22.0386Z" fill="#DB6400"/>
</svg>
