<svg width="121" height="44" viewBox="0 0 121 44" fill="none" xmlns="http://www.w3.org/2000/svg">
<g filter="url(#filter0_d_1103_27964)">
<path d="M20.82 37C18.4822 37 16.3436 36.6138 14.4043 35.8414C12.465 35.0424 10.7914 33.9372 9.38338 32.5256C8.00195 31.0874 6.92603 29.3962 6.15562 27.4519C5.38521 25.4811 5 23.3238 5 20.98C5 18.6363 5.38521 16.4923 6.15562 14.5481C6.92603 12.6038 8.00195 10.9259 9.38338 9.51436C10.7914 8.07615 12.465 6.97087 14.4043 6.1985C16.3436 5.3995 18.4822 5 20.82 5C23.1578 5 25.2831 5.3995 27.1958 6.1985C29.1351 6.97087 30.8088 8.07615 32.2168 9.51436C33.6248 10.9259 34.714 12.6038 35.4844 14.5481C36.2548 16.4923 36.64 18.6363 36.64 20.98C36.64 23.3238 36.2548 25.4811 35.4844 27.4519C34.714 29.3962 33.6248 31.0874 32.2168 32.5256C30.8088 33.9372 29.1351 35.0424 27.1958 35.8414C25.2831 36.6138 23.1578 37 20.82 37ZM20.82 33.2447C23.1312 33.2447 25.1768 32.712 26.9567 31.6467C28.7366 30.5547 30.1314 29.0899 31.1409 27.2522C32.1504 25.3878 32.6551 23.2971 32.6551 20.98C32.6551 18.6629 32.1504 16.5855 31.1409 14.7478C30.1314 12.8835 28.7366 11.4186 26.9567 10.3533C25.1768 9.28797 23.1312 8.75531 20.82 8.75531C18.5088 8.75531 16.4632 9.28797 14.6833 10.3533C12.9034 11.4186 11.5086 12.8835 10.4991 14.7478C9.48964 16.5855 8.98489 18.6629 8.98489 20.98C8.98489 23.2971 9.48964 25.3878 10.4991 27.2522C11.5086 29.0899 12.9034 30.5547 14.6833 31.6467C16.4632 32.712 18.5088 33.2447 20.82 33.2447Z" fill="white"/>
<path d="M50.6229 36.7603C48.6836 36.7603 46.9435 36.2809 45.4027 35.3221C43.8619 34.3367 42.6398 33.0183 41.7366 31.367C40.8599 29.6891 40.4216 27.7982 40.4216 25.6941C40.4216 23.5901 40.8998 21.6991 41.8562 20.0212C42.8391 18.3433 44.1541 17.025 45.8012 16.0662C47.4748 15.0807 49.3477 14.588 51.4199 14.588C53.492 14.588 55.3516 15.0807 56.9987 16.0662C58.6458 17.025 59.9475 18.3433 60.9039 20.0212C61.8869 21.6991 62.3783 23.5901 62.3783 25.6941V34.603C62.3783 35.1889 62.1791 35.6816 61.7806 36.0811C61.4087 36.454 60.9305 36.6404 60.346 36.6404C59.7616 36.6404 59.2701 36.454 58.8716 36.0811C58.4997 35.6816 58.3137 35.1889 58.3137 34.603V33.1248C57.3839 34.2434 56.2549 35.1357 54.9266 35.8015C53.6249 36.4407 52.1903 36.7603 50.6229 36.7603ZM51.4199 33.1648C52.7747 33.1648 53.9835 32.8452 55.0461 32.206C56.1088 31.5402 56.9456 30.6479 57.5566 29.5293C58.1676 28.3841 58.4731 27.1057 58.4731 25.6941C58.4731 24.2559 58.1676 22.9775 57.5566 21.8589C56.9456 20.7137 56.1088 19.8215 55.0461 19.1823C53.9835 18.5164 52.7747 18.1835 51.4199 18.1835C50.0916 18.1835 48.8828 18.5164 47.7936 19.1823C46.731 19.8215 45.8809 20.7137 45.2433 21.8589C44.6323 22.9775 44.3268 24.2559 44.3268 25.6941C44.3268 27.1057 44.6323 28.3841 45.2433 29.5293C45.8809 30.6479 46.731 31.5402 47.7936 32.206C48.8828 32.8452 50.0916 33.1648 51.4199 33.1648Z" fill="white"/>
<path d="M75.162 36.7603C73.3024 36.7603 71.5756 36.4806 69.9817 35.9213C68.4143 35.3354 67.1923 34.603 66.3156 33.7241C65.9171 33.298 65.7444 32.8186 65.7975 32.2859C65.8772 31.7266 66.1429 31.2738 66.5945 30.9276C67.1258 30.5015 67.6439 30.3283 68.1486 30.4082C68.6799 30.4615 69.1316 30.6879 69.5035 31.0874C69.9551 31.5934 70.6724 32.0728 71.6553 32.5256C72.6648 32.9517 73.7806 33.1648 75.0026 33.1648C76.5435 33.1648 77.7124 32.9118 78.5093 32.4057C79.3329 31.8997 79.7579 31.2472 79.7845 30.4482C79.8111 29.6492 79.4258 28.9567 78.6289 28.3708C77.8585 27.7849 76.4372 27.3055 74.3651 26.9326C71.6819 26.3999 69.7293 25.6009 68.5073 24.5356C67.3118 23.4702 66.7141 22.1652 66.7141 20.6205C66.7141 19.2622 67.1126 18.1436 67.9095 17.2647C68.7065 16.3591 69.7293 15.6933 70.9779 15.2672C72.2265 14.8144 73.5282 14.588 74.8831 14.588C76.6364 14.588 78.1905 14.8677 79.5454 15.427C80.9003 15.9863 81.9762 16.7586 82.7732 17.7441C83.1451 18.1702 83.3178 18.623 83.2912 19.1024C83.2646 19.5551 83.0388 19.9413 82.6138 20.2609C82.1887 20.5539 81.684 20.6471 81.0995 20.5406C80.5151 20.434 80.0236 20.1943 79.6251 19.8215C78.961 19.1823 78.2437 18.7428 77.4733 18.5031C76.7029 18.2634 75.8129 18.1436 74.8034 18.1436C73.6345 18.1436 72.6383 18.3433 71.8147 18.7428C71.0177 19.1423 70.6193 19.7283 70.6193 20.5006C70.6193 20.98 70.7388 21.4195 70.9779 21.819C71.2436 22.1918 71.7483 22.5381 72.4921 22.8577C73.236 23.1506 74.3252 23.4436 75.7598 23.7366C78.7617 24.3225 80.8338 25.1615 81.9762 26.2534C83.1451 27.3188 83.7295 28.6371 83.7295 30.2085C83.7295 31.4336 83.3975 32.5389 82.7333 33.5243C82.0957 34.5098 81.1394 35.2955 79.8642 35.8814C78.6156 36.4673 77.0482 36.7603 75.162 36.7603Z" fill="white"/>
<path d="M90.1041 36.6005C89.5197 36.6005 89.0282 36.4141 88.6297 36.0412C88.2578 35.6417 88.0718 35.149 88.0718 34.563V16.7853C88.0718 16.1727 88.2578 15.68 88.6297 15.3071C89.0282 14.9342 89.5197 14.7478 90.1041 14.7478C90.7151 14.7478 91.2066 14.9342 91.5785 15.3071C91.9504 15.68 92.1364 16.1727 92.1364 16.7853V34.563C92.1364 35.149 91.9504 35.6417 91.5785 36.0412C91.2066 36.4141 90.7151 36.6005 90.1041 36.6005ZM90.1041 11.1923C89.3868 11.1923 88.7625 10.9392 88.2312 10.4332C87.7265 9.90054 87.4741 9.27466 87.4741 8.55555C87.4741 7.83645 87.7265 7.22389 88.2312 6.71785C88.7625 6.18518 89.3868 5.91885 90.1041 5.91885C90.8214 5.91885 91.4324 6.18518 91.9372 6.71785C92.4685 7.22389 92.7341 7.83645 92.7341 8.55555C92.7341 9.27466 92.4685 9.90054 91.9372 10.4332C91.4324 10.9392 90.8214 11.1923 90.1041 11.1923Z" fill="white"/>
<path d="M106.432 36.7603C104.573 36.7603 102.846 36.4806 101.252 35.9213C99.6847 35.3354 98.4627 34.603 97.586 33.7241C97.1876 33.298 97.0149 32.8186 97.068 32.2859C97.1477 31.7266 97.4134 31.2738 97.865 30.9276C98.3963 30.5015 98.9143 30.3283 99.4191 30.4082C99.9504 30.4615 100.402 30.6879 100.774 31.0874C101.226 31.5934 101.943 32.0728 102.926 32.5256C103.935 32.9517 105.051 33.1648 106.273 33.1648C107.814 33.1648 108.983 32.9118 109.78 32.4057C110.603 31.8997 111.028 31.2472 111.055 30.4482C111.082 29.6492 110.696 28.9567 109.899 28.3708C109.129 27.7849 107.708 27.3055 105.636 26.9326C102.952 26.3999 101 25.6009 99.7777 24.5356C98.5823 23.4702 97.9845 22.1652 97.9845 20.6205C97.9845 19.2622 98.383 18.1436 99.18 17.2647C99.977 16.3591 101 15.6933 102.248 15.2672C103.497 14.8144 104.799 14.588 106.154 14.588C107.907 14.588 109.461 14.8677 110.816 15.427C112.171 15.9863 113.247 16.7586 114.044 17.7441C114.416 18.1702 114.588 18.623 114.562 19.1024C114.535 19.5551 114.309 19.9413 113.884 20.2609C113.459 20.5539 112.954 20.6471 112.37 20.5406C111.786 20.434 111.294 20.1943 110.896 19.8215C110.231 19.1823 109.514 18.7428 108.744 18.5031C107.973 18.2634 107.083 18.1436 106.074 18.1436C104.905 18.1436 103.909 18.3433 103.085 18.7428C102.288 19.1423 101.89 19.7283 101.89 20.5006C101.89 20.98 102.009 21.4195 102.248 21.819C102.514 22.1918 103.019 22.5381 103.763 22.8577C104.506 23.1506 105.596 23.4436 107.03 23.7366C110.032 24.3225 112.104 25.1615 113.247 26.2534C114.416 27.3188 115 28.6371 115 30.2085C115 31.4336 114.668 32.5389 114.004 33.5243C113.366 34.5098 112.41 35.2955 111.135 35.8814C109.886 36.4673 108.319 36.7603 106.432 36.7603Z" fill="white"/>
<path d="M14.3 24.2C14.3 24.2 16.625 27.4 20.5 27.4C24.375 27.4 26.7 24.2 26.7 24.2M15.85 16.2H15.8655M25.15 16.2H25.1655M36 21C36 29.8366 29.0604 37 20.5 37C11.9396 37 5 29.8366 5 21C5 12.1634 11.9396 5 20.5 5C29.0604 5 36 12.1634 36 21Z" stroke="white" stroke-width="2" stroke-linecap="round" stroke-linejoin="round"/>
</g>
<defs>
<filter id="filter0_d_1103_27964" x="0" y="0" width="121" height="44" filterUnits="userSpaceOnUse" color-interpolation-filters="sRGB">
<feFlood flood-opacity="0" result="BackgroundImageFix"/>
<feColorMatrix in="SourceAlpha" type="matrix" values="0 0 0 0 0 0 0 0 0 0 0 0 0 0 0 0 0 0 127 0" result="hardAlpha"/>
<feOffset dx="1" dy="1"/>
<feGaussianBlur stdDeviation="2.5"/>
<feComposite in2="hardAlpha" operator="out"/>
<feColorMatrix type="matrix" values="0 0 0 0 0.286275 0 0 0 0 0.360784 0 0 0 0 0.388235 0 0 0 1 0"/>
<feBlend mode="normal" in2="BackgroundImageFix" result="effect1_dropShadow_1103_27964"/>
<feBlend mode="normal" in="SourceGraphic" in2="effect1_dropShadow_1103_27964" result="shape"/>
</filter>
</defs>
</svg>
