<svg width="32" height="32" viewBox="0 0 32 32" fill="none" xmlns="http://www.w3.org/2000/svg">
<g clip-path="url(#clip0_792_14387)">
<g clip-path="url(#clip1_792_14387)">
<path d="M25.5942 22.9541L25.3708 23.4014L26.0342 22.7165L25.5942 22.9541ZM23.2782 21.7971L23.5016 21.3498L23.3991 21.312L23.2782 21.7971ZM20.5509 21.1172L20.6718 20.6321L20.6084 20.6206L20.5509 21.1172ZM17.1986 20.7287L17.2562 20.232L17.2203 20.2292L17.1986 20.7287ZM13.8463 20.583L13.868 20.0835L13.7915 20.086L13.8463 20.583ZM10.9187 20.9058L10.8639 20.4088L10.8161 20.4165L10.9187 20.9058ZM7.59627 21.6029L7.49361 21.1135L7.34574 21.1702L7.59627 21.6029ZM5.8349 22.6227L5.51004 22.2426L6.08544 23.0554L5.8349 22.6227ZM5.89172 22.5742L6.21659 22.9542L6.3615 22.7454L5.89172 22.5742ZM6.97127 19.6117L7.44867 19.4631L6.50149 19.4405L6.97127 19.6117ZM7.58938 21.597L7.11198 21.7456L7.96629 21.9255L7.58938 21.597ZM10.0395 18.7861L10.5039 18.6009L9.66256 18.4576L10.0395 18.7861ZM10.8917 20.923L10.4273 21.1082L11.2824 21.2351L10.8917 20.923ZM12.4827 18.9318L12.8761 18.6233L12.092 18.6197L12.4827 18.9318ZM13.7728 20.5771L13.3794 20.8857L14.1802 20.867L13.7728 20.5771ZM15.3236 18.3976L15.7086 18.0786L14.9162 18.1078L15.3236 18.3976ZM17.2554 20.7287L16.8704 21.0478L17.6325 21.057L17.2554 20.7287ZM19.0736 18.6404L19.2185 18.1619L19.0991 18.1411L19.0736 18.6404ZM20.6645 21.1658L20.2415 21.4323L21.0764 21.4493L20.6645 21.1658ZM21.8009 19.5146L22.2074 19.2234L21.389 19.2311L21.8009 19.5146ZM23.5054 21.8943L23.099 22.1854L24.0016 21.956L23.5054 21.8943ZM23.7327 19.5632L23.7076 20.0625L24.0371 19.1665L23.7327 19.5632ZM21.8009 19.466L21.656 19.9446L21.7758 19.9654L21.8009 19.466ZM15.2668 18.4462L15.2922 17.9468L15.1825 17.9533L15.2668 18.4462ZM12.4258 18.9318L12.3853 19.4302L12.5101 19.4247L12.4258 18.9318ZM10.0395 18.7376L10.08 18.2392L9.90928 18.2548L10.0395 18.7376ZM6.97816 19.5632L6.65987 19.1776L7.10836 20.0459L6.97816 19.5632ZM10.0963 16.9892L10.596 17.0054L9.77799 16.6037L10.0963 16.9892ZM10.0395 18.7488L9.53973 18.7327L10.27 19.1926L10.0395 18.7488ZM13.1679 17.1237L13.4197 16.6917L12.9374 16.68L13.1679 17.1237ZM15.4372 18.4462L15.1855 18.8782L15.8042 18.7858L15.4372 18.4462ZM17.1688 16.5752L17.5353 16.2351L16.8018 16.2356L17.1688 16.5752ZM19.1304 18.689L18.7639 19.0291L19.4156 19.0997L19.1304 18.689ZM20.835 17.3778L21.2979 17.1888L20.941 16.8891L20.835 17.3778ZM17.0282 16.5522L17.1341 16.0635L16.951 16.0582L17.0282 16.5522ZM13.168 17.1551L13.0908 16.661L12.704 16.9687L13.168 17.1551ZM13.2214 17.1349L13.1903 17.634L13.5402 17.5201L13.2214 17.1349ZM15.0395 15.6294L15.236 15.1697L14.7207 15.2443L15.0395 15.6294ZM17.1986 16.5522L17.0022 17.0119L17.5143 16.9399L17.1986 16.5522ZM18.3918 15.5809L18.6845 15.1755L18.0762 15.1931L18.3918 15.5809ZM22.8805 17.5235L23.3389 17.3239L22.9056 17.0241L22.8805 17.5235ZM25.6088 22.9702L25.1144 22.8956L25.2228 23.288L25.6088 22.9702ZM27.0753 24.7516L26.6892 25.0694L27.5551 24.6111L27.0753 24.7516ZM25.9302 20.8411L26.4101 20.7006L25.4358 20.7665L25.9302 20.8411ZM10.0604 16.9607L10.2763 17.4116L10.3488 17.3691L10.0604 16.9607ZM11.9086 15.6557L12.2857 15.3274L11.6202 15.2473L11.9086 15.6557ZM15.0825 15.6557V16.1557L15.3524 16.0767L15.0825 15.6557ZM16.0468 15.0376L16.1615 14.5509L15.7769 14.6167L16.0468 15.0376ZM18.377 15.587L18.3824 16.087L18.4918 15.1004L18.377 15.587ZM25.8177 22.5068L23.5016 21.3498L23.0547 22.2444L25.3708 23.4014L25.8177 22.5068ZM23.3991 21.312L20.6718 20.6321L20.4299 21.6024L23.1572 22.2823L23.3991 21.312ZM20.6084 20.6206L17.2562 20.232L17.141 21.2254L20.4933 21.6139L20.6084 20.6206ZM17.2203 20.2292L13.868 20.0835L13.8246 21.0826L17.1769 21.2282L17.2203 20.2292ZM13.7915 20.086L10.8639 20.4088L10.9735 21.4028L13.9011 21.08L13.7915 20.086ZM10.8161 20.4165L7.49361 21.1135L7.69894 22.0922L11.0214 21.3952L10.8161 20.4165ZM7.34574 21.1702L5.58436 22.19L6.08544 23.0554L7.84681 22.0356L7.34574 21.1702ZM6.15977 23.0028L6.21659 22.9542L5.56685 22.1941L5.51004 22.2426L6.15977 23.0028ZM6.3615 22.7454L7.44105 19.7829L6.50149 19.4405L5.42194 22.403L6.3615 22.7454ZM6.49388 19.7604L7.11198 21.7456L8.06678 21.4483L7.44867 19.4631L6.49388 19.7604ZM7.96629 21.9255L10.4164 19.1147L9.66256 18.4576L7.21247 21.2684L7.96629 21.9255ZM9.57505 18.9714L10.4273 21.1082L11.3562 20.7377L10.5039 18.6009L9.57505 18.9714ZM11.2824 21.2351L12.8733 19.2439L12.092 18.6197L10.5011 20.6109L11.2824 21.2351ZM12.0892 19.2404L13.3794 20.8857L14.1663 20.2686L12.8761 18.6233L12.0892 19.2404ZM14.1802 20.867L15.731 18.6875L14.9162 18.1078L13.3654 20.2873L14.1802 20.867ZM14.9386 18.7167L16.8704 21.0478L17.6404 20.4097L15.7086 18.0786L14.9386 18.7167ZM17.6325 21.057L19.4507 18.9688L18.6965 18.3121L16.8783 20.4004L17.6325 21.057ZM18.6506 18.907L20.2415 21.4323L21.0876 20.8993L19.4967 18.3739L18.6506 18.907ZM21.0764 21.4493L22.2128 19.7981L21.389 19.2311L20.2526 20.8823L21.0764 21.4493ZM21.3944 19.8058L23.099 22.1854L23.9119 21.6031L22.2074 19.2234L21.3944 19.8058ZM24.0016 21.956L24.2857 19.6735L23.2934 19.55L23.0093 21.8325L24.0016 21.956ZM23.3496 19.8493L25.1543 23.1917L26.0342 22.7165L24.2295 19.3742L23.3496 19.8493ZM23.7578 19.0638L21.826 18.9667L21.7758 19.9654L23.7076 20.0625L23.7578 19.0638ZM21.9458 18.9875L19.2185 18.1619L18.9287 19.119L21.656 19.9446L21.9458 18.9875ZM19.0991 18.1411L15.2922 17.9468L15.2413 18.9455L19.0481 19.1398L19.0991 18.1411ZM15.1825 17.9533L12.3416 18.439L12.5101 19.4247L15.351 18.939L15.1825 17.9533ZM12.4664 18.4335L10.08 18.2392L9.9989 19.2359L12.3853 19.4302L12.4664 18.4335ZM9.90928 18.2548L6.84797 19.0804L7.10836 20.0459L10.1697 19.2203L9.90928 18.2548ZM7.29646 19.9488L10.4146 17.3748L9.77799 16.6037L6.65987 19.1776L7.29646 19.9488ZM9.59655 16.9731L9.53973 18.7327L10.5392 18.765L10.596 17.0054L9.59655 16.9731ZM10.27 19.1926L13.3984 17.5674L12.9374 16.68L9.80897 18.3051L10.27 19.1926ZM12.9162 17.5557L15.1855 18.8782L15.689 18.0142L13.4197 16.6917L12.9162 17.5557ZM15.8042 18.7858L17.5357 16.9148L16.8018 16.2356L15.0703 18.1066L15.8042 18.7858ZM16.8023 16.9154L18.7639 19.0291L19.4969 18.3489L17.5353 16.2351L16.8023 16.9154ZM19.4156 19.0997L21.2338 17.837L20.6634 17.0156L18.8452 18.2783L19.4156 19.0997ZM20.6442 17.823L23.4283 19.9598L24.0371 19.1665L21.253 17.0297L20.6442 17.823ZM22.1502 19.2771L21.2979 17.1888L20.3721 17.5667L21.2244 19.655L22.1502 19.2771ZM20.941 16.8891L17.1341 16.0635L16.9222 17.0408L20.729 17.8664L20.941 16.8891ZM16.951 16.0582L13.0908 16.661L13.2451 17.6491L17.1053 17.0462L16.951 16.0582ZM12.704 16.9687L11.9903 18.7455L12.9183 19.1182L13.6319 17.3414L12.704 16.9687ZM10.0653 17.4397L13.1903 17.634L13.2524 16.6359L10.1274 16.4417L10.0653 17.4397ZM13.5402 17.5201L15.3584 16.0146L14.7207 15.2443L12.9025 16.7498L13.5402 17.5201ZM14.8431 16.0892L17.0022 17.0119L17.3951 16.0924L15.236 15.1697L14.8431 16.0892ZM17.5143 16.9399L18.7075 15.9687L18.0762 15.1931L16.883 16.1644L17.5143 16.9399ZM18.0992 15.9863L20.656 17.8318L21.2412 17.0209L18.6845 15.1755L18.0992 15.9863ZM20.9235 17.9257L22.8554 18.0228L22.9056 17.0241L20.9737 16.927L20.9235 17.9257ZM22.422 17.723L23.3311 19.8113L24.248 19.4122L23.3389 17.3239L22.422 17.723ZM5.49189 22.2219L4.02544 23.8359L4.76557 24.5083L6.23202 22.8944L5.49189 22.2219ZM25.2228 23.288L26.6892 25.0694L27.4613 24.4338L25.9948 22.6524L25.2228 23.288ZM27.5551 24.6111L26.4101 20.7006L25.4504 20.9816L26.5954 24.8921L27.5551 24.6111ZM25.4358 20.7665L25.1144 22.8956L26.1032 23.0448L26.4246 20.9157L25.4358 20.7665ZM7.76527 18.6136L10.2763 17.4116L9.84458 16.5097L7.33353 17.7116L7.76527 18.6136ZM10.3488 17.3691L12.197 16.0642L11.6202 15.2473L9.77205 16.5522L10.3488 17.3691ZM11.5315 15.984L12.8171 17.4607L13.5713 16.804L12.2857 15.3274L11.5315 15.984ZM11.9487 16.1557H15.0825V15.1557H11.9487V16.1557ZM15.3524 16.0767L16.3166 15.4585L15.7769 14.6167L14.8127 15.2348L15.3524 16.0767ZM15.932 15.5243L18.2623 16.0737L18.4918 15.1004L16.1615 14.5509L15.932 15.5243ZM18.3717 15.0871L15.1575 15.1214L15.1682 16.1214L18.3824 16.087L18.3717 15.0871ZM18.4182 16.1288L19.0209 15.9228L18.6974 14.9766L18.0947 15.1826L18.4182 16.1288ZM23.3557 19.9381L25.6859 21.243L26.1745 20.3705L23.8443 19.0656L23.3557 19.9381ZM5.70939 21.303L7.29637 19.9122L6.63728 19.1601L5.0503 20.5509L5.70939 21.303ZM4.90242 21.0583L5.40463 22.6723L6.35948 22.3752L5.85727 20.7612L4.90242 21.0583Z" fill="#FAFDFF"/>
<path d="M5.94835 21.3117L9.86882 18.0093L8.84609 22.8172L13.8461 20.0005L18.3916 23.7278L19.7552 18.5799L24.0166 22.7686L23.9598 19.2234L26.1189 22.6108L24.0734 22.8172L18.3774 23.7156L13.1075 24.6626L8.91955 22.8486L6.00517 21.3117L5.60744 26.3624L8.85614 22.8341L9.98246 28.0622L13.0507 24.6141L15.7211 28.8878L18.3916 23.7399L22.2552 28.2564L23.9598 22.8172L26.1402 26.4474L26.1189 22.6229L27.0848 24.7598L26.1189 26.4595L22.1416 28.2564L15.8916 28.8878L9.92564 28.1107L5.60744 26.3138L4.41425 24.2741L5.94835 21.3117ZM5.94835 21.3117L7.53927 18.155M5.94835 21.3117L5.34344 20.9374L7.53927 18.155M7.53927 18.155H9.81201L15.1529 16.0667M7.53927 18.155L11.9143 15.6297L15.1529 16.0182L16.0052 15.0954L19.528 15.9696L15.1529 16.0667M15.1529 16.0667L13.9029 20.0005L19.8121 18.6407M15.1529 16.0667L19.8121 18.6407M19.8121 18.6407L23.903 19.0777L19.5346 16.0184L19.8121 18.6407ZM13.0472 24.6514L13.9029 20.0976L9.8688 18.0579L11.9711 15.5811L13.8461 15.3383L16.0052 15.0469L18.7325 15.4354L19.5848 16.0182L22.7098 17.1837M22.7098 17.1837L23.9598 19.1263L25.9484 20.826L26.1331 22.6229M22.7098 17.1837L25.9484 20.7775M22.7098 17.1837L18.7724 15.4354M4.35742 24.2256L5.38015 21.0203" stroke="#FAFDFF" stroke-linejoin="bevel"/>
</g>
<path d="M15.8602 32C13.5164 32 11.3725 31.6138 9.42821 30.8414C7.48398 30.0424 5.80608 28.9372 4.39451 27.5256C3.00957 26.0874 1.93092 24.3962 1.15855 22.4519C0.386184 20.4811 0 18.3238 0 15.98C0 13.6363 0.386184 11.4923 1.15855 9.54806C1.93092 7.60383 3.00957 5.92593 4.39451 4.51436C5.80608 3.07615 7.48398 1.97087 9.42821 1.1985C11.3725 0.3995 13.5164 0 15.8602 0C18.2039 0 20.3346 0.3995 22.2522 1.1985C24.1964 1.97087 25.8743 3.07615 27.2859 4.51436C28.6975 5.92593 29.7894 7.60383 30.5618 9.54806C31.3342 11.4923 31.7203 13.6363 31.7203 15.98C31.7203 18.3238 31.3342 20.4811 30.5618 22.4519C29.7894 24.3962 28.6975 26.0874 27.2859 27.5256C25.8743 28.9372 24.1964 30.0424 22.2522 30.8414C20.3346 31.6138 18.2039 32 15.8602 32ZM15.8602 28.2447C18.1773 28.2447 20.228 27.712 22.0125 26.6467C23.7969 25.5547 25.1952 24.0899 26.2072 22.2522C27.2193 20.3878 27.7253 18.2971 27.7253 15.98C27.7253 13.6629 27.2193 11.5855 26.2072 9.74781C25.1952 7.88348 23.7969 6.41864 22.0125 5.35331C20.228 4.28797 18.1773 3.75531 15.8602 3.75531C13.5431 3.75531 11.4923 4.28797 9.70787 5.35331C7.92343 6.41864 6.52518 7.88348 5.51311 9.74781C4.50104 11.5855 3.99501 13.6629 3.99501 15.98C3.99501 18.2971 4.50104 20.3878 5.51311 22.2522C6.52518 24.0899 7.92343 25.5547 9.70787 26.6467C11.4923 27.712 13.5431 28.2447 15.8602 28.2447Z" fill="#FAFDFF"/>
</g>
<defs>
<clipPath id="clip0_792_14387">
<rect width="31.7203" height="32" fill="white"/>
</clipPath>
<clipPath id="clip1_792_14387">
<rect width="24.769" height="16.779" fill="white" transform="translate(3.03613 13.2236)"/>
</clipPath>
</defs>
</svg>
