<svg width="111" height="34" viewBox="0 0 111 34" fill="none" xmlns="http://www.w3.org/2000/svg">
<path d="M16.82 33C14.4822 33 12.3436 32.6138 10.4043 31.8414C8.46502 31.0424 6.79137 29.9372 5.38338 28.5256C4.00195 27.0874 2.92603 25.3962 2.15562 23.4519C1.38521 21.4811 1 19.3238 1 16.98C1 14.6363 1.38521 12.4923 2.15562 10.5481C2.92603 8.60383 4.00195 6.92593 5.38338 5.51436C6.79137 4.07615 8.46502 2.97087 10.4043 2.1985C12.3436 1.3995 14.4822 1 16.82 1C19.1578 1 21.2831 1.3995 23.1958 2.1985C25.1351 2.97087 26.8088 4.07615 28.2168 5.51436C29.6248 6.92593 30.714 8.60383 31.4844 10.5481C32.2548 12.4923 32.64 14.6363 32.64 16.98C32.64 19.3238 32.2548 21.4811 31.4844 23.4519C30.714 25.3962 29.6248 27.0874 28.2168 28.5256C26.8088 29.9372 25.1351 31.0424 23.1958 31.8414C21.2831 32.6138 19.1578 33 16.82 33ZM16.82 29.2447C19.1312 29.2447 21.1768 28.712 22.9567 27.6467C24.7366 26.5547 26.1314 25.0899 27.1409 23.2522C28.1504 21.3878 28.6551 19.2971 28.6551 16.98C28.6551 14.6629 28.1504 12.5855 27.1409 10.7478C26.1314 8.88348 24.7366 7.41864 22.9567 6.35331C21.1768 5.28797 19.1312 4.75531 16.82 4.75531C14.5088 4.75531 12.4632 5.28797 10.6833 6.35331C8.90336 7.41864 7.50865 8.88348 6.49914 10.7478C5.48964 12.5855 4.98489 14.6629 4.98489 16.98C4.98489 19.2971 5.48964 21.3878 6.49914 23.2522C7.50865 25.0899 8.90336 26.5547 10.6833 27.6467C12.4632 28.712 14.5088 29.2447 16.82 29.2447Z" fill="#FF97E8"/>
<path d="M46.6229 32.7603C44.6836 32.7603 42.9435 32.2809 41.4027 31.3221C39.8619 30.3367 38.6398 29.0183 37.7366 27.367C36.8599 25.6891 36.4216 23.7982 36.4216 21.6941C36.4216 19.5901 36.8998 17.6991 37.8562 16.0212C38.8391 14.3433 40.1541 13.025 41.8012 12.0662C43.4748 11.0807 45.3477 10.588 47.4199 10.588C49.492 10.588 51.3516 11.0807 52.9987 12.0662C54.6458 13.025 55.9475 14.3433 56.9039 16.0212C57.8869 17.6991 58.3783 19.5901 58.3783 21.6941V30.603C58.3783 31.1889 58.1791 31.6816 57.7806 32.0811C57.4087 32.454 56.9305 32.6404 56.346 32.6404C55.7616 32.6404 55.2701 32.454 54.8716 32.0811C54.4997 31.6816 54.3137 31.1889 54.3137 30.603V29.1248C53.3839 30.2434 52.2549 31.1357 50.9266 31.8015C49.6249 32.4407 48.1903 32.7603 46.6229 32.7603ZM47.4199 29.1648C48.7747 29.1648 49.9835 28.8452 51.0461 28.206C52.1088 27.5402 52.9456 26.6479 53.5566 25.5293C54.1676 24.3841 54.4731 23.1057 54.4731 21.6941C54.4731 20.2559 54.1676 18.9775 53.5566 17.8589C52.9456 16.7137 52.1088 15.8215 51.0461 15.1823C49.9835 14.5164 48.7747 14.1835 47.4199 14.1835C46.0916 14.1835 44.8828 14.5164 43.7936 15.1823C42.731 15.8215 41.8809 16.7137 41.2433 17.8589C40.6323 18.9775 40.3268 20.2559 40.3268 21.6941C40.3268 23.1057 40.6323 24.3841 41.2433 25.5293C41.8809 26.6479 42.731 27.5402 43.7936 28.206C44.8828 28.8452 46.0916 29.1648 47.4199 29.1648Z" fill="#FF97E8"/>
<path d="M71.162 32.7603C69.3024 32.7603 67.5756 32.4806 65.9817 31.9213C64.4143 31.3354 63.1923 30.603 62.3156 29.7241C61.9171 29.298 61.7444 28.8186 61.7975 28.2859C61.8772 27.7266 62.1429 27.2738 62.5945 26.9276C63.1258 26.5015 63.6439 26.3283 64.1486 26.4082C64.6799 26.4615 65.1316 26.6879 65.5035 27.0874C65.9551 27.5934 66.6724 28.0728 67.6553 28.5256C68.6648 28.9517 69.7806 29.1648 71.0026 29.1648C72.5435 29.1648 73.7124 28.9118 74.5093 28.4057C75.3329 27.8997 75.7579 27.2472 75.7845 26.4482C75.8111 25.6492 75.4259 24.9567 74.6289 24.3708C73.8585 23.7849 72.4372 23.3055 70.365 22.9326C67.6819 22.3999 65.7293 21.6009 64.5073 20.5356C63.3118 19.4702 62.7141 18.1652 62.7141 16.6205C62.7141 15.2622 63.1126 14.1436 63.9095 13.2647C64.7065 12.3591 65.7293 11.6933 66.9779 11.2672C68.2265 10.8144 69.5282 10.588 70.8831 10.588C72.6364 10.588 74.1905 10.8677 75.5454 11.427C76.9003 11.9863 77.9762 12.7586 78.7732 13.7441C79.1451 14.1702 79.3178 14.623 79.2912 15.1024C79.2646 15.5551 79.0388 15.9413 78.6138 16.2609C78.1887 16.5539 77.684 16.6471 77.0995 16.5406C76.5151 16.434 76.0236 16.1943 75.6251 15.8215C74.9609 15.1823 74.2437 14.7428 73.4733 14.5031C72.7028 14.2634 71.8129 14.1436 70.8034 14.1436C69.6345 14.1436 68.6383 14.3433 67.8147 14.7428C67.0177 15.1423 66.6193 15.7283 66.6193 16.5006C66.6193 16.98 66.7388 17.4195 66.9779 17.819C67.2436 18.1918 67.7483 18.5381 68.4922 18.8577C69.236 19.1506 70.3252 19.4436 71.7598 19.7366C74.7617 20.3225 76.8338 21.1615 77.9762 22.2534C79.1451 23.3188 79.7295 24.6371 79.7295 26.2085C79.7295 27.4336 79.3975 28.5389 78.7333 29.5243C78.0957 30.5098 77.1394 31.2955 75.8642 31.8814C74.6156 32.4673 73.0482 32.7603 71.162 32.7603Z" fill="#FF97E8"/>
<path d="M86.1041 32.6005C85.5197 32.6005 85.0282 32.4141 84.6297 32.0412C84.2578 31.6417 84.0718 31.149 84.0718 30.563V12.7853C84.0718 12.1727 84.2578 11.68 84.6297 11.3071C85.0282 10.9342 85.5197 10.7478 86.1041 10.7478C86.7151 10.7478 87.2066 10.9342 87.5785 11.3071C87.9504 11.68 88.1364 12.1727 88.1364 12.7853V30.563C88.1364 31.149 87.9504 31.6417 87.5785 32.0412C87.2066 32.4141 86.7151 32.6005 86.1041 32.6005ZM86.1041 7.19226C85.3868 7.19226 84.7625 6.93924 84.2312 6.43321C83.7265 5.90054 83.4741 5.27466 83.4741 4.55555C83.4741 3.83645 83.7265 3.22389 84.2312 2.71785C84.7625 2.18518 85.3868 1.91885 86.1041 1.91885C86.8214 1.91885 87.4324 2.18518 87.9372 2.71785C88.4685 3.22389 88.7341 3.83645 88.7341 4.55555C88.7341 5.27466 88.4685 5.90054 87.9372 6.43321C87.4324 6.93924 86.8214 7.19226 86.1041 7.19226Z" fill="#FF97E8"/>
<path d="M102.432 32.7603C100.573 32.7603 98.8461 32.4806 97.2521 31.9213C95.6847 31.3354 94.4627 30.603 93.586 29.7241C93.1876 29.298 93.0149 28.8186 93.068 28.2859C93.1477 27.7266 93.4134 27.2738 93.865 26.9276C94.3963 26.5015 94.9143 26.3283 95.4191 26.4082C95.9504 26.4615 96.402 26.6879 96.7739 27.0874C97.2256 27.5934 97.9428 28.0728 98.9258 28.5256C99.9353 28.9517 101.051 29.1648 102.273 29.1648C103.814 29.1648 104.983 28.9118 105.78 28.4057C106.603 27.8997 107.028 27.2472 107.055 26.4482C107.082 25.6492 106.696 24.9567 105.899 24.3708C105.129 23.7849 103.708 23.3055 101.636 22.9326C98.9524 22.3999 96.9998 21.6009 95.7777 20.5356C94.5823 19.4702 93.9845 18.1652 93.9845 16.6205C93.9845 15.2622 94.383 14.1436 95.18 13.2647C95.977 12.3591 96.9998 11.6933 98.2484 11.2672C99.497 10.8144 100.799 10.588 102.154 10.588C103.907 10.588 105.461 10.8677 106.816 11.427C108.171 11.9863 109.247 12.7586 110.044 13.7441C110.416 14.1702 110.588 14.623 110.562 15.1024C110.535 15.5551 110.309 15.9413 109.884 16.2609C109.459 16.5539 108.954 16.6471 108.37 16.5406C107.786 16.434 107.294 16.1943 106.896 15.8215C106.231 15.1823 105.514 14.7428 104.744 14.5031C103.973 14.2634 103.083 14.1436 102.074 14.1436C100.905 14.1436 99.9087 14.3433 99.0852 14.7428C98.2882 15.1423 97.8897 15.7283 97.8897 16.5006C97.8897 16.98 98.0093 17.4195 98.2484 17.819C98.514 18.1918 99.0188 18.5381 99.7626 18.8577C100.506 19.1506 101.596 19.4436 103.03 19.7366C106.032 20.3225 108.104 21.1615 109.247 22.2534C110.416 23.3188 111 24.6371 111 26.2085C111 27.4336 110.668 28.5389 110.004 29.5243C109.366 30.5098 108.41 31.2955 107.135 31.8814C105.886 32.4673 104.319 32.7603 102.432 32.7603Z" fill="#FF97E8"/>
<path d="M10.3 20.2C10.3 20.2 12.625 23.4 16.5 23.4C20.375 23.4 22.7 20.2 22.7 20.2M11.85 12.2H11.8655M21.15 12.2H21.1655M32 17C32 25.8366 25.0604 33 16.5 33C7.93959 33 1 25.8366 1 17C1 8.16344 7.93959 1 16.5 1C25.0604 1 32 8.16344 32 17Z" stroke="#FF97E8" stroke-width="2" stroke-linecap="round" stroke-linejoin="round"/>
</svg>
