<svg width="54" height="55" viewBox="0 0 54 55" fill="none" xmlns="http://www.w3.org/2000/svg">
<g clip-path="url(#clip0_792_16526)">
<path d="M43.5082 38.9313L43.2847 39.3786L43.9481 38.6937L43.5082 38.9313ZM39.58 36.969L39.8034 36.5217L39.7009 36.4839L39.58 36.969ZM34.9543 35.8159L35.0752 35.3307L35.0119 35.3192L34.9543 35.8159ZM29.2686 35.1569L29.3262 34.6602L29.2903 34.6574L29.2686 35.1569ZM23.5829 34.9098L23.6046 34.4103L23.5281 34.4128L23.5829 34.9098ZM18.6175 35.4573L18.5627 34.9603L18.5149 34.9679L18.6175 35.4573ZM12.9824 36.6395L12.8798 36.1502L12.7319 36.2068L12.9824 36.6395ZM9.99502 38.3693L9.67015 37.9892L10.2456 38.802L9.99502 38.3693ZM10.0914 38.2869L10.4163 38.667L10.5612 38.4581L10.0914 38.2869ZM11.9224 33.2624L12.3998 33.1138L11.4526 33.0912L11.9224 33.2624ZM12.9707 36.6295L12.4933 36.7782L13.3476 36.9581L12.9707 36.6295ZM17.1262 31.8622L17.5907 31.6769L16.7493 31.5336L17.1262 31.8622ZM18.5718 35.4864L18.1073 35.6716L18.9624 35.7985L18.5718 35.4864ZM21.2701 32.1093L21.6635 31.8007L20.8794 31.7972L21.2701 32.1093ZM23.4583 34.8998L23.0648 35.2083L23.8657 35.1897L23.4583 34.8998ZM26.0885 31.2032L26.4734 30.8842L25.6811 30.9133L26.0885 31.2032ZM29.365 35.1569L28.98 35.476L29.7421 35.4852L29.365 35.1569ZM32.4487 31.6151L32.5936 31.1365L32.4742 31.1157L32.4487 31.6151ZM35.147 35.8982L34.724 36.1647L35.5589 36.1817L35.147 35.8982ZM37.0744 33.0977L37.4809 32.8065L36.6625 32.8142L37.0744 33.0977ZM39.9654 37.1338L39.5589 37.4249L40.4616 37.1955L39.9654 37.1338ZM40.3509 33.1801L40.3258 33.6794L40.6553 32.7834L40.3509 33.1801ZM37.0744 33.0153L36.9295 33.4939L37.0493 33.5147L37.0744 33.0153ZM25.9921 31.2856L26.0176 30.7862L25.9078 30.7927L25.9921 31.2856ZM21.1737 32.1093L21.1331 32.6076L21.2579 32.6021L21.1737 32.1093ZM17.1262 31.7798L17.1668 31.2814L16.996 31.297L17.1262 31.7798ZM11.9341 33.1801L11.6158 32.7945L12.0643 33.6628L11.9341 33.1801ZM17.2226 28.8145L17.7223 28.8307L16.9043 28.4289L17.2226 28.8145ZM17.1262 31.7989L16.6265 31.7828L17.3567 32.2426L17.1262 31.7989ZM22.4323 29.0425L22.6841 28.6105L22.2018 28.5988L22.4323 29.0425ZM26.2812 31.2856L26.0294 31.7176L26.6482 31.6252L26.2812 31.2856ZM29.218 28.1123L29.5845 27.7722L28.851 27.7727L29.218 28.1123ZM32.5451 31.6974L32.1786 32.0375L32.8303 32.1081L32.5451 31.6974ZM35.4362 29.4735L35.8991 29.2845L35.5422 28.9848L35.4362 29.4735ZM28.9796 28.0732L29.0855 27.5846L28.9024 27.5792L28.9796 28.0732ZM22.4324 29.0958L22.3552 28.6017L21.9684 28.9094L22.4324 29.0958ZM22.5229 29.0616L22.4919 29.5607L22.8418 29.4468L22.5229 29.0616ZM25.6067 26.5082L25.8032 26.0484L25.2878 26.1231L25.6067 26.5082ZM29.2687 28.0732L29.0722 28.533L29.5843 28.461L29.2687 28.0732ZM31.2924 26.4258L31.585 26.0204L30.9767 26.0381L31.2924 26.4258ZM38.9055 29.7206L39.3639 29.521L38.9306 29.2212L38.9055 29.7206ZM43.5329 38.9586L43.0385 38.884L43.1468 39.2764L43.5329 38.9586ZM46.0201 41.98L45.634 42.2978L46.4999 41.8395L46.0201 41.98ZM44.078 35.3475L44.5579 35.207L43.5836 35.2729L44.078 35.3475ZM17.1618 28.766L17.3777 29.217L17.4502 29.1745L17.1618 28.766ZM20.2964 26.5528L20.6735 26.2244L20.008 26.1443L20.2964 26.5528ZM25.6796 26.5528V27.0528L25.9494 26.9737L25.6796 26.5528ZM27.315 25.5044L27.4298 25.0177L27.0452 25.0835L27.315 25.5044ZM31.2673 26.4363L31.2726 26.9363L31.382 25.9496L31.2673 26.4363ZM43.7316 38.484L39.8034 36.5217L39.3565 37.4163L43.2847 39.3786L43.7316 38.484ZM39.7009 36.4839L35.0752 35.3307L34.8333 36.301L39.459 37.4542L39.7009 36.4839ZM35.0119 35.3192L29.3262 34.6602L29.211 35.6536L34.8967 36.3125L35.0119 35.3192ZM29.2903 34.6574L23.6046 34.4103L23.5612 35.4093L29.2469 35.6564L29.2903 34.6574ZM23.5281 34.4128L18.5627 34.9603L18.6723 35.9542L23.6377 35.4068L23.5281 34.4128ZM18.5149 34.9679L12.8798 36.1502L13.0851 37.1289L18.7202 35.9466L18.5149 34.9679ZM12.7319 36.2068L9.74448 37.9366L10.2456 38.802L13.233 37.0722L12.7319 36.2068ZM10.3199 38.7494L10.4163 38.667L9.76652 37.9068L9.67015 37.9892L10.3199 38.7494ZM10.5612 38.4581L12.3922 33.4336L11.4526 33.0912L9.62161 38.1157L10.5612 38.4581ZM11.445 33.4111L12.4933 36.7782L13.4481 36.4809L12.3998 33.1138L11.445 33.4111ZM13.3476 36.9581L17.5032 32.1907L16.7493 31.5336L12.5938 36.301L13.3476 36.9581ZM16.6618 32.0474L18.1073 35.6716L19.0362 35.3011L17.5907 31.6769L16.6618 32.0474ZM18.9624 35.7985L21.6607 32.4214L20.8794 31.7972L18.1811 35.1743L18.9624 35.7985ZM20.8766 32.4178L23.0648 35.2083L23.8517 34.5913L21.6635 31.8007L20.8766 32.4178ZM23.8657 35.1897L26.4959 31.4931L25.6811 30.9133L23.0509 34.6099L23.8657 35.1897ZM25.7035 31.5223L28.98 35.476L29.7499 34.8379L26.4734 30.8842L25.7035 31.5223ZM29.7421 35.4852L32.8258 31.9434L32.0716 31.2867L28.9879 34.8286L29.7421 35.4852ZM32.0257 31.8816L34.724 36.1647L35.5701 35.6317L32.8718 31.3485L32.0257 31.8816ZM35.5589 36.1817L37.4863 33.3812L36.6625 32.8142L34.7351 35.6148L35.5589 36.1817ZM36.6679 33.3889L39.5589 37.4249L40.3719 36.8426L37.4809 32.8065L36.6679 33.3889ZM40.4616 37.1955L40.9434 33.3242L39.9511 33.2007L39.4693 37.072L40.4616 37.1955ZM40.0073 33.5L43.0682 39.1689L43.9481 38.6937L40.8872 33.0249L40.0073 33.5ZM40.376 32.6807L37.0995 32.516L37.0493 33.5147L40.3258 33.6794L40.376 32.6807ZM37.2193 32.5368L32.5936 31.1365L32.3039 32.0936L36.9295 33.4939L37.2193 32.5368ZM32.4742 31.1157L26.0176 30.7862L25.9666 31.7849L32.4233 32.1144L32.4742 31.1157ZM25.9078 30.7927L21.0894 31.6164L21.2579 32.6021L26.0763 31.7784L25.9078 30.7927ZM21.2143 31.6109L17.1668 31.2814L17.0857 32.2781L21.1331 32.6076L21.2143 31.6109ZM16.996 31.297L11.8039 32.6973L12.0643 33.6628L17.2564 32.2625L16.996 31.297ZM12.2524 33.5657L17.5409 29.2001L16.9043 28.4289L11.6158 32.7945L12.2524 33.5657ZM16.7229 28.7984L16.6265 31.7828L17.626 31.8151L17.7223 28.8307L16.7229 28.7984ZM17.3567 32.2426L22.6628 29.4862L22.2018 28.5988L16.8957 31.3552L17.3567 32.2426ZM22.1806 29.4745L26.0294 31.7176L26.5329 30.8536L22.6841 28.6105L22.1806 29.4745ZM26.6482 31.6252L29.5849 28.4519L28.851 27.7727L25.9142 30.946L26.6482 31.6252ZM28.8515 28.4524L32.1786 32.0375L32.9116 31.3573L29.5845 27.7722L28.8515 28.4524ZM32.8303 32.1081L35.9141 29.9665L35.3437 29.1452L32.2599 31.2867L32.8303 32.1081ZM35.3244 29.9525L40.0465 33.5767L40.6553 32.7834L35.9333 29.1592L35.3244 29.9525ZM37.3446 32.8264L35.8991 29.2845L34.9733 29.6624L36.4188 33.2043L37.3446 32.8264ZM35.5422 28.9848L29.0855 27.5846L28.8736 28.5619L35.3302 29.9621L35.5422 28.9848ZM28.9024 27.5792L22.3552 28.6017L22.5095 29.5898L29.0567 28.5672L28.9024 27.5792ZM21.9684 28.9094L20.758 31.9229L21.6859 32.2956L22.8964 29.2821L21.9684 28.9094ZM17.1917 29.2312L22.4919 29.5607L22.5539 28.5626L17.2537 28.2331L17.1917 29.2312ZM22.8418 29.4468L25.9256 26.8933L25.2878 26.1231L22.204 28.6765L22.8418 29.4468ZM25.4102 26.968L29.0722 28.533L29.4652 27.6134L25.8032 26.0484L25.4102 26.968ZM29.5843 28.461L31.6081 26.8136L30.9767 26.0381L28.953 27.6855L29.5843 28.461ZM30.9998 26.8313L35.3362 29.9613L35.9215 29.1504L31.585 26.0204L30.9998 26.8313ZM35.6038 30.0552L38.8804 30.22L38.9306 29.2212L35.654 29.0565L35.6038 30.0552ZM38.447 29.9202L39.9888 33.462L40.9057 33.0629L39.3639 29.521L38.447 29.9202ZM9.67084 37.9235L7.18365 40.6609L7.92377 41.3334L10.411 38.5959L9.67084 37.9235ZM43.1468 39.2764L45.634 42.2978L46.4061 41.6622L43.9189 38.6408L43.1468 39.2764ZM46.4999 41.8395L44.5579 35.207L43.5982 35.488L45.5402 42.1205L46.4999 41.8395ZM43.5836 35.2729L43.0385 38.884L44.0273 39.0332L44.5724 35.4222L43.5836 35.2729ZM13.1188 31.2555L17.3777 29.217L16.946 28.315L12.6871 30.3535L13.1188 31.2555ZM17.4502 29.1745L20.5848 26.9612L20.008 26.1443L16.8734 28.3576L17.4502 29.1745ZM19.9193 26.8811L22.0998 29.3856L22.854 28.7289L20.6735 26.2244L19.9193 26.8811ZM20.3645 27.0528H25.6796V26.0528H20.3645V27.0528ZM25.9494 26.9737L27.5849 25.9253L27.0452 25.0835L25.4098 26.1318L25.9494 26.9737ZM27.2003 25.991L31.1525 26.9229L31.382 25.9496L27.4298 25.0177L27.2003 25.991ZM31.2619 25.9363L25.8106 25.9946L25.8212 26.9945L31.2726 26.9363L31.2619 25.9363ZM31.2246 27.0259L32.2467 26.6764L31.9232 25.7302L30.9011 26.0797L31.2246 27.0259ZM39.8815 33.5123L43.8337 35.7255L44.3223 34.853L40.3701 32.6398L39.8815 33.5123ZM9.55276 35.8692L12.2444 33.5103L11.5853 32.7582L8.89367 35.1171L9.55276 35.8692ZM8.74579 35.6126L9.59757 38.35L10.5524 38.0529L9.70064 35.3154L8.74579 35.6126Z" fill="#FAFDFF"/>
<path d="M10.1876 36.1456L16.837 30.5445L15.1023 38.699L23.5827 33.9216L31.2921 40.2434L33.605 31.5123L40.8326 38.6166L40.7362 32.6037L44.3982 38.3489L40.9289 38.699L31.268 40.2228L22.3299 41.829L15.2269 38.7522L10.2839 36.1456L9.60937 44.7119L15.1194 38.7277L17.0297 47.5948L22.2336 41.7466L26.7628 48.9951L31.2921 40.264L37.8452 47.9243L40.7362 38.699L44.4343 44.856L44.3982 38.3695L46.0364 41.9937L44.3982 44.8766L37.6524 47.9243L27.052 48.9951L16.9333 47.6772L9.60937 44.6295L7.58565 41.17L10.1876 36.1456ZM10.1876 36.1456L12.8859 30.7916M10.1876 36.1456L9.16161 35.5107L12.8859 30.7916M12.8859 30.7916H16.7406L25.7992 27.2498M12.8859 30.7916L20.3062 26.5084L25.7992 27.1674L27.2447 25.6024L33.2195 27.085L25.7992 27.2498M25.7992 27.2498L23.6791 33.9216L33.7013 31.6153M25.7992 27.2498L33.7013 31.6153M33.7013 31.6153L40.6398 32.3566L33.2307 27.1678L33.7013 31.6153ZM22.2277 41.8099L23.679 34.0863L16.8369 30.6269L20.4025 26.4261L23.5827 26.0142L27.2446 25.52L31.8703 26.179L33.3158 27.1674L38.6161 29.1442M38.6161 29.1442L40.7361 32.439L44.109 35.3219L44.4222 38.3695M38.6161 29.1442L44.109 35.2395M38.6161 29.1442L31.938 26.179M7.48926 41.0877L9.22388 35.6514" stroke="#FAFDFF" stroke-linejoin="bevel"/>
<path d="M26.9995 54.2741C23.0244 54.2741 19.388 53.6191 16.0905 52.3091C12.7929 50.954 9.9471 49.0793 7.55298 46.6852C5.20404 44.2459 3.37458 41.3775 2.06459 38.08C0.754603 34.7372 0.0996094 31.0783 0.0996094 27.1032C0.0996094 23.128 0.754603 19.4917 2.06459 16.1941C3.37458 12.8966 5.20404 10.0508 7.55298 7.65665C9.9471 5.21736 12.7929 3.34272 16.0905 2.03274C19.388 0.677579 23.0244 0 26.9995 0C30.9746 0 34.5884 0.677579 37.8408 2.03274C41.1383 3.34272 43.9842 5.21736 46.3783 7.65665C48.7724 10.0508 50.6245 12.8966 51.9344 16.1941C53.2444 19.4917 53.8994 23.128 53.8994 27.1032C53.8994 31.0783 53.2444 34.7372 51.9344 38.08C50.6245 41.3775 48.7724 44.2459 46.3783 46.6852C43.9842 49.0793 41.1383 50.954 37.8408 52.3091C34.5884 53.6191 30.9746 54.2741 26.9995 54.2741ZM26.9995 47.9049C30.9295 47.9049 34.4077 47.0014 37.4342 45.1945C40.4608 43.3425 42.8323 40.858 44.5488 37.7412C46.2654 34.5791 47.1236 31.0331 47.1236 27.1032C47.1236 23.1732 46.2654 19.6498 44.5488 16.5329C42.8323 13.3709 40.4608 10.8864 37.4342 9.07956C34.4077 7.27269 30.9295 6.36925 26.9995 6.36925C23.0696 6.36925 19.5913 7.27269 16.5648 9.07956C13.5383 10.8864 11.1667 13.3709 9.4502 16.5329C7.73367 19.6498 6.8754 23.1732 6.8754 27.1032C6.8754 31.0331 7.73367 34.5791 9.4502 37.7412C11.1667 40.858 13.5383 43.3425 16.5648 45.1945C19.5913 47.0014 23.0696 47.9049 26.9995 47.9049Z" fill="#FAFDFF"/>
</g>
<defs>
<clipPath id="clip0_792_16526">
<rect width="53.7998" height="54.2741" fill="white" transform="translate(0.0996094)"/>
</clipPath>
</defs>
</svg>
